<svg width="54" height="16" viewBox="0 0 54 16" fill="none" xmlns="http://www.w3.org/2000/svg">
<path d="M6.02423 2.88009H3.21623V4.00009H4.71223C4.51223 4.53609 4.02423 4.86409 3.28023 4.86409C2.19223 4.86409 1.52023 4.16809 1.52023 3.21609C1.52023 2.23209 2.22423 1.53609 3.16823 1.53609C3.80023 1.53609 4.30423 1.82409 4.53623 2.19209L5.62423 1.56809C5.15223 0.816086 4.24823 0.288086 3.17623 0.288086C1.52823 0.288086 0.240234 1.58409 0.240234 3.20809C0.240234 4.81609 1.50423 6.11209 3.26423 6.11209C4.83223 6.11209 6.02423 5.07209 6.02423 3.36009V2.88009Z" fill="white"/>
<path d="M7.62586 4.76809V3.77609H9.62586V2.56009H7.62586V1.63209H9.82586V0.400086H6.34586V6.00009H9.86586V4.76809H7.62586Z" fill="white"/>
<path d="M13.948 0.400086H9.78805V1.63209H11.228V6.00009H12.508V1.63209H13.948V0.400086Z" fill="white"/>
<path d="M15.7084 0.400086V6.00009H16.9884V0.400086H15.7084Z" fill="white"/>
<path d="M21.3105 0.400086H17.1505V1.63209H18.5905V6.00009H19.8705V1.63209H21.3105V0.400086Z" fill="white"/>
<path d="M25.7429 6.11209C27.3509 6.11209 28.6549 4.84809 28.6549 3.20009C28.6549 1.55209 27.3509 0.288086 25.7429 0.288086C24.1349 0.288086 22.8309 1.55209 22.8309 3.20009C22.8309 4.84809 24.1349 6.11209 25.7429 6.11209ZM25.7429 4.86409C24.8309 4.86409 24.1109 4.20009 24.1109 3.20009C24.1109 2.20009 24.8309 1.53609 25.7429 1.53609C26.6549 1.53609 27.3749 2.20009 27.3749 3.20009C27.3749 4.20009 26.6549 4.86409 25.7429 4.86409Z" fill="white"/>
<path d="M32.0955 0.400086V3.44009L29.9355 0.400086H28.9755V6.00009H30.2555V2.96009L32.4155 6.00009H33.3755V0.400086H32.0955Z" fill="white"/>
<path d="M6.02423 12.3921V12.6081C6.02423 13.3068 5.77623 13.8961 5.28023 14.3761C4.78423 14.8508 4.1309 15.0881 3.32023 15.0881C2.4669 15.0881 1.7629 14.8108 1.20823 14.2561C0.653568 13.6961 0.376234 13.0108 0.376234 12.2001C0.376234 11.3894 0.650901 10.7068 1.20023 10.1521C1.74957 9.59209 2.44557 9.31209 3.28823 9.31209C3.80023 9.31209 4.26957 9.43475 4.69623 9.68009C5.12823 9.92542 5.46157 10.2534 5.69623 10.6641L5.32023 10.8881C5.13357 10.5361 4.85623 10.2534 4.48823 10.0401C4.12557 9.82675 3.72557 9.72009 3.28823 9.72009C2.5629 9.72009 1.96557 9.96009 1.49623 10.4401C1.03223 10.9148 0.800234 11.5014 0.800234 12.2001C0.800234 12.8988 1.0349 13.4881 1.50423 13.9681C1.97357 14.4428 2.5789 14.6801 3.32023 14.6801C3.97623 14.6801 4.5069 14.5014 4.91223 14.1441C5.31757 13.7868 5.54423 13.3361 5.59223 12.7921H3.21623V12.3921H6.02423Z" fill="white"/>
<path d="M11.7029 14.2481C11.1429 14.8081 10.4602 15.0881 9.65486 15.0881C8.84953 15.0881 8.16686 14.8081 7.60686 14.2481C7.04686 13.6828 6.76686 13.0001 6.76686 12.2001C6.76686 11.4001 7.04686 10.7201 7.60686 10.1601C8.16686 9.59475 8.84953 9.31209 9.65486 9.31209C10.4602 9.31209 11.1429 9.59475 11.7029 10.1601C12.2629 10.7201 12.5429 11.4001 12.5429 12.2001C12.5429 13.0001 12.2629 13.6828 11.7029 14.2481ZM7.90286 13.9601C8.38286 14.4401 8.96686 14.6801 9.65486 14.6801C10.3429 14.6801 10.9242 14.4401 11.3989 13.9601C11.8789 13.4748 12.1189 12.8881 12.1189 12.2001C12.1189 11.5121 11.8789 10.9281 11.3989 10.4481C10.9242 9.96275 10.3429 9.72009 9.65486 9.72009C8.96686 9.72009 8.38286 9.96275 7.90286 10.4481C7.42819 10.9281 7.19086 11.5121 7.19086 12.2001C7.19086 12.8881 7.42819 13.4748 7.90286 13.9601Z" fill="white"/>
<path d="M18.2341 14.2481C17.6741 14.8081 16.9914 15.0881 16.1861 15.0881C15.3808 15.0881 14.6981 14.8081 14.1381 14.2481C13.5781 13.6828 13.2981 13.0001 13.2981 12.2001C13.2981 11.4001 13.5781 10.7201 14.1381 10.1601C14.6981 9.59475 15.3808 9.31209 16.1861 9.31209C16.9914 9.31209 17.6741 9.59475 18.2341 10.1601C18.7941 10.7201 19.0741 11.4001 19.0741 12.2001C19.0741 13.0001 18.7941 13.6828 18.2341 14.2481ZM14.4341 13.9601C14.9141 14.4401 15.4981 14.6801 16.1861 14.6801C16.8741 14.6801 17.4554 14.4401 17.9301 13.9601C18.4101 13.4748 18.6501 12.8881 18.6501 12.2001C18.6501 11.5121 18.4101 10.9281 17.9301 10.4481C17.4554 9.96275 16.8741 9.72009 16.1861 9.72009C15.4981 9.72009 14.9141 9.96275 14.4341 10.4481C13.9594 10.9281 13.7221 11.5121 13.7221 12.2001C13.7221 12.8881 13.9594 13.4748 14.4341 13.9601Z" fill="white"/>
<path d="M25.4774 12.3921V12.6081C25.4774 13.3068 25.2294 13.8961 24.7334 14.3761C24.2374 14.8508 23.584 15.0881 22.7734 15.0881C21.92 15.0881 21.216 14.8108 20.6614 14.2561C20.1067 13.6961 19.8294 13.0108 19.8294 12.2001C19.8294 11.3894 20.104 10.7068 20.6534 10.1521C21.2027 9.59209 21.8987 9.31209 22.7414 9.31209C23.2534 9.31209 23.7227 9.43475 24.1494 9.68009C24.5814 9.92542 24.9147 10.2534 25.1494 10.6641L24.7734 10.8881C24.5867 10.5361 24.3094 10.2534 23.9414 10.0401C23.5787 9.82675 23.1787 9.72009 22.7414 9.72009C22.016 9.72009 21.4187 9.96009 20.9494 10.4401C20.4854 10.9148 20.2534 11.5014 20.2534 12.2001C20.2534 12.8988 20.488 13.4881 20.9574 13.9681C21.4267 14.4428 22.032 14.6801 22.7734 14.6801C23.4294 14.6801 23.96 14.5014 24.3654 14.1441C24.7707 13.7868 24.9974 13.3361 25.0454 12.7921H22.6694V12.3921H25.4774Z" fill="white"/>
<path d="M26.964 14.6001H29.604V15.0001H26.54V9.40009H26.964V14.6001Z" fill="white"/>
<path d="M30.9093 14.6001H33.7093V15.0001H30.4853V9.40009H33.6693V9.80009H30.9093V11.9761H33.4693V12.3761H30.9093V14.6001Z" fill="white"/>
<path d="M38.7877 9.40009C39.2891 9.40009 39.7051 9.56542 40.0357 9.89609C40.3664 10.2268 40.5317 10.6401 40.5317 11.1361C40.5317 11.6321 40.3664 12.0454 40.0357 12.3761C39.7051 12.7014 39.2891 12.8641 38.7877 12.8641H37.3077V15.0001H36.8837V9.40009H38.7877ZM38.7877 12.4641C39.1717 12.4641 39.4864 12.3388 39.7317 12.0881C39.9824 11.8374 40.1077 11.5201 40.1077 11.1361C40.1077 10.7468 39.9824 10.4268 39.7317 10.1761C39.4864 9.92542 39.1717 9.80009 38.7877 9.80009H37.3077V12.4641H38.7877Z" fill="white"/>
<path d="M42.003 14.6001H44.643V15.0001H41.579V9.40009H42.003V14.6001Z" fill="white"/>
<path d="M49.4486 15.0001L48.9046 13.5761H46.0966L45.5526 15.0001H45.1046L47.2806 9.40009H47.7286L49.8966 15.0001H49.4486ZM46.2566 13.1761H48.7526L47.5046 9.92009L46.2566 13.1761Z" fill="white"/>
<path d="M53.8811 9.40009L51.8411 12.6961V15.0001H51.4171V12.6961L49.3771 9.40009H49.8571L51.6331 12.2881L53.4011 9.40009H53.8811Z" fill="white"/>
</svg>
