<svg width="119" height="154" viewBox="0 0 119 154" fill="none" xmlns="http://www.w3.org/2000/svg">
<path d="M72.1751 86.8472C70.8168 87.1514 69.4938 87.715 68.2882 88.5024C65.1474 90.5037 63.3201 93.3604 64.2071 94.8826C65.094 96.4047 68.3591 96.0154 71.4998 94.0141C72.7216 93.2545 73.807 92.2837 74.6892 91.1618C75.0986 90.6197 75.172 89.9442 74.8768 89.4393L73.7246 87.4619C73.4315 86.9554 72.8234 86.7145 72.1751 86.8472Z" fill="#D5D6DB"/>
<path d="M64.2875 59.8541C63.3025 60.0748 62.3431 60.4837 61.4688 61.0547C59.192 62.5055 57.8662 64.5769 58.5088 65.6797C59.1514 66.7825 61.5199 66.4999 63.7965 65.0493C64.6824 64.4982 65.4693 63.794 66.1091 62.9803C66.4056 62.5874 66.4587 62.098 66.2447 61.732L65.4105 60.3002C65.1982 59.933 64.7576 59.758 64.2875 59.8541Z" fill="#D5D6DB"/>
<path d="M51.473 60.9845C51.2538 60.96 51.02 61.0184 50.8172 61.1479L45.469 64.5562C45.0217 64.8404 44.8427 65.3877 45.0696 65.7789C45.1215 65.8685 45.1925 65.9451 45.2787 66.0041L58.4604 75.089L76.2938 63.7243L51.473 60.9845Z" fill="#029BC5"/>
<path d="M107.85 59.6999L59.3184 90.252L30.6056 101.677L15.9625 104.588L14.3516 101.851L95.2467 51.9043C97.6575 50.4095 100.343 49.4919 103.032 49.2448C104.209 49.1429 105.372 49.1821 106.493 49.3609C107.487 49.5116 108.43 49.8023 109.294 50.2244C110.258 50.7026 112.093 50.7578 112.687 51.7106C112.689 51.7091 114.091 56.0835 107.85 59.6999Z" fill="#E1E6E9"/>
<path d="M59.9617 86.2095L38.9665 119.679C38.7042 120.15 38.8599 120.676 39.3138 120.855C39.5923 120.965 39.9333 120.922 40.2197 120.74L45.5637 117.35C46.5915 116.697 47.5016 115.869 48.2378 114.915L88.9542 67.0462L59.9617 86.2095Z" fill="#029BC5"/>
<path d="M6.98214 85.092C6.63192 84.9723 6.21513 85.0344 5.8633 85.2584L1.44581 88.0718C0.843895 88.4549 0.604045 89.1913 0.909906 89.717C0.968182 89.8169 1.04388 89.9049 1.13462 89.9773L13.5114 99.8896L26.5244 91.7615L6.98214 85.092Z" fill="#029BC5"/>
<path d="M17.6599 101.677L10.9985 111.006C10.9008 111.14 10.9238 111.308 11.0497 111.382C11.1406 111.435 11.2646 111.425 11.3654 111.358L15.4936 108.742C15.5257 108.721 15.5547 108.696 15.5787 108.667L25.3123 96.832L17.6599 101.677Z" fill="#029BC5"/>
<path d="M105.697 49.7631C104.542 49.5777 103.345 49.5381 102.132 49.6447C100.951 51.2958 100.196 53.1505 99.9428 55.0239C99.9243 55.4002 100.228 55.6711 100.621 55.6289C100.743 55.6156 100.864 55.5727 100.973 55.504L108.581 50.6597C107.692 50.2211 106.721 49.9193 105.697 49.7631Z" fill="#029BC5"/>
<path d="M89.1172 58.6713L94.0842 55.5343L98.7108 63.4033L93.7438 66.5403L89.1172 58.6713Z" fill="#D5D6DB"/>
<path d="M85.9923 61.7834C85.3937 62.1625 85.1545 62.8913 85.4584 63.411L85.9507 64.253C86.2745 64.7595 87.0138 64.8485 87.6021 64.4518C88.1619 64.074 88.3873 63.3874 88.1176 62.8803L87.6252 62.0383C87.3216 61.5191 86.5908 61.4048 85.9923 61.7834Z" fill="#3A556A"/>
<path d="M81.5284 64.5559C80.9299 64.9351 80.6906 65.6639 80.9945 66.1836L81.4868 67.0256C81.8106 67.532 82.5499 67.6211 83.1382 67.2244C83.698 66.8466 83.9235 66.1599 83.6537 65.6529L83.1614 64.8109C82.8575 64.2918 82.1267 64.1775 81.5284 64.5559Z" fill="#3A556A"/>
<path d="M77.0623 67.3292C76.4644 67.7089 76.226 68.4368 76.5297 68.956L77.022 69.798C77.3458 70.3044 78.0851 70.3935 78.6734 69.9968C79.2332 69.619 79.4586 68.9324 79.1888 68.4254L78.6965 67.5834C78.3927 67.0637 77.6611 66.9499 77.0623 67.3292Z" fill="#3A556A"/>
<path d="M72.5984 70.1017C72.0005 70.4813 71.7622 71.2092 72.0658 71.7285L72.5581 72.5705C72.8819 73.077 73.6212 73.166 74.2095 72.7693C74.7693 72.3915 74.9948 71.7049 74.725 71.1978L74.2327 70.3558C73.9285 69.8363 73.197 69.7225 72.5984 70.1017Z" fill="#3A556A"/>
<path d="M68.1342 72.8743C67.536 73.2541 67.2975 73.9824 67.6013 74.5019L68.0939 75.3442C68.3975 75.8635 69.1288 75.9772 69.7272 75.5982C70.3255 75.2192 70.5644 74.491 70.2608 73.9718L69.7682 73.1294C69.4652 72.6097 68.7343 72.4952 68.1355 72.8735C68.135 72.8738 68.1347 72.874 68.1342 72.8743Z" fill="#3A556A"/>
<path d="M63.6694 75.6468C63.0711 76.0266 62.8326 76.7548 63.1364 77.2743L63.629 78.1167C63.9327 78.6359 64.6639 78.7497 65.2623 78.3707C65.8607 77.9917 66.0996 77.2635 65.7959 76.7442L65.3033 75.9019C65.0004 75.3821 64.2694 75.2677 63.6706 75.646C63.6701 75.6463 63.6696 75.6466 63.6694 75.6468Z" fill="#3A556A"/>
<path d="M59.2045 78.4193C58.6063 78.7991 58.3678 79.5273 58.6716 80.0468L59.1642 80.8891C59.4686 81.4078 60.2002 81.5204 60.7979 81.1409C61.3946 80.7621 61.633 80.0355 61.3308 79.5168L60.8382 78.6745C60.5346 78.1549 59.8034 78.0406 59.2045 78.4193Z" fill="#3A556A"/>
<path d="M54.7407 81.1917C54.1424 81.5715 53.9039 82.2998 54.2077 82.8192L54.7003 83.6616C55.0047 84.1804 55.7363 84.293 56.334 83.9135C56.9308 83.5346 57.1692 82.808 56.8669 82.2893L56.3743 81.447C56.0708 80.9273 55.3395 80.813 54.7407 81.1917Z" fill="#3A556A"/>
<path d="M50.2758 83.9642C49.6776 84.344 49.4391 85.0722 49.7429 85.5917L50.2354 86.434C50.5399 86.9528 51.2715 87.0653 51.8692 86.6859C52.4659 86.307 52.7043 85.5804 52.402 85.0617L51.9095 84.2194C51.6057 83.7 50.8744 83.5856 50.2758 83.9642Z" fill="#3A556A"/>
<path d="M45.81 86.7374C45.2116 87.1164 44.9727 87.8445 45.2764 88.3638L45.277 88.3649L45.7696 89.2072C46.0741 89.726 46.8057 89.8386 47.4034 89.4591C48.0001 89.0803 48.2385 88.3536 47.9362 87.835L47.4436 86.9926C47.1401 86.473 46.4089 86.3586 45.81 86.7374Z" fill="#3A556A"/>
<path d="M41.3471 89.5091C40.7487 89.8881 40.5098 90.6163 40.8135 91.1355L40.8142 91.1366L41.3068 91.9789C41.6112 92.4977 42.3428 92.6103 42.9405 92.2308C43.5373 91.852 43.7757 91.1253 43.4734 90.6067L42.9808 89.7644C42.677 89.2449 41.9457 89.1306 41.3471 89.5091Z" fill="#3A556A"/>
</svg>
